<?xml version="1.0" encoding="UTF-8"?>
<!DOCTYPE svg PUBLIC "-//W3C//DTD SVG 1.1//EN" "http://www.w3.org/Graphics/SVG/1.1/DTD/svg11.dtd">
<!-- Creator: CorelDRAW 2021 (64-Bit) -->
<svg xmlns="http://www.w3.org/2000/svg" xml:space="preserve" width="5.4187mm" height="4.3425mm" version="1.1" style="shape-rendering:geometricPrecision; text-rendering:geometricPrecision; image-rendering:optimizeQuality; fill-rule:evenodd; clip-rule:evenodd"
viewBox="0 0 5.99 4.8"
 xmlns:xlink="http://www.w3.org/1999/xlink"
 xmlns:xodm="http://www.corel.com/coreldraw/odm/2003">
 <defs>
  <style type="text/css">
   <![CDATA[
    .fil0 {fill:#F1623F}
   ]]>
  </style>
 </defs>
 <g id="Capa_x0020_1">
  <metadata id="CorelCorpID_0Corel-Layer"/>
  <g id="isotipo">
   <path class="fil0" d="M2.78 4.79c-1.5,0.08 -2.74,-0.28 -2.77,-0.8 -0.01,-0.22 0.18,-0.43 0.52,-0.6 -0.14,0.13 -0.21,0.27 -0.2,0.42 0.04,0.55 1.28,0.94 2.78,0.86 0.71,-0.04 1.36,-0.17 1.83,-0.37 -0.48,0.26 -1.26,0.45 -2.15,0.5l0 0zm-0.18 -4.78c1.23,-0.04 2.24,0.27 2.26,0.7 0.01,0.18 -0.16,0.35 -0.44,0.49 0.12,-0.11 0.18,-0.22 0.17,-0.34 -0.02,-0.45 -1.03,-0.79 -2.26,-0.74 -0.59,0.02 -1.11,0.12 -1.51,0.27 0.4,-0.2 1.04,-0.35 1.77,-0.37l0 0zm1.11 1.24c0.07,0 0.1,0.03 0.1,0.09 0.02,0.04 0.05,0.05 0.09,0.05 0.04,-0.02 0.05,-0.06 0.02,-0.13 -0.03,-0.07 -0.1,-0.07 -0.21,-0.01l0 0zm-3.09 1.09c0.18,-0.69 0.58,-1.26 1.21,-1.73 -0.63,0.19 -1.22,0.64 -1.76,1.37 0.07,0.07 0.14,0.07 0.2,0.02 0.12,-0.08 0.21,-0.07 0.28,0.01 -0.02,0.19 0.01,0.3 0.08,0.33l0 0zm-0.26 -0.85c0.26,-0.31 0.59,-0.6 1,-0.84 -0.38,0.09 -0.76,0.22 -1.13,0.39 -0.01,0.08 0.04,0.13 0.13,0.15 -0.07,0.17 -0.07,0.27 -0,0.31l-0 0zm2.79 2.15c0.26,0.35 0.58,0.57 0.97,0.66 0.32,0.05 0.58,-0.04 0.78,-0.27 0.21,-0.27 0.29,-0.54 0.24,-0.82 -0.03,-0.18 -0.09,-0.34 -0.18,-0.5 0.45,-0.05 0.72,0.06 0.82,0.36 0.08,0.27 0.02,0.43 -0.16,0.49 -0.15,0.03 -0.23,-0 -0.26,-0.11 0,-0.04 0.02,-0.07 0.05,-0.1 0.04,-0.05 0.02,-0.09 -0.04,-0.14 0.02,0.05 0,0.08 -0.06,0.08 -0.08,0.09 -0.08,0.2 0.01,0.32 0.16,0.15 0.35,0.12 0.57,-0.09 0.11,-0.15 0.12,-0.35 0.03,-0.58 -0.25,-0.46 -0.64,-0.61 -1.16,-0.45 -0.24,-0.26 -0.63,-0.38 -1.18,-0.36 -0.55,0.03 -0.87,-0.07 -0.95,-0.3 -0.1,-0.35 0.14,-0.52 0.72,-0.52 0.07,0.18 0.24,0.29 0.52,0.32 0.07,0.07 0.16,0.12 0.25,0.14 -0,0.06 0.01,0.11 0.04,0.17 0.13,-0.03 0.21,-0.08 0.23,-0.15 0.01,-0.04 0.01,-0.09 -0.01,-0.14 -0.08,-0.13 -0.2,-0.24 -0.34,-0.31 0.02,-0.17 -0.08,-0.29 -0.31,-0.38 -0.22,-0.03 -0.42,-0.2 -0.6,-0.51 -0.06,-0.09 -0.12,-0.15 -0.2,-0.18 -0.02,0.09 0.01,0.19 0.09,0.3 0.06,0.09 0.13,0.19 0.19,0.28 -0.53,-0.09 -0.92,0.11 -1.17,0.6 -0.12,-0.06 -0.16,-0.17 -0.12,-0.35 0.05,-0.15 0.18,-0.28 0.4,-0.39 0.14,0.03 0.21,0 0.2,-0.08 -0.02,-0.12 -0.11,-0.16 -0.26,-0.12 -0.55,0.3 -0.96,0.67 -1.22,1.11 -0.24,0.37 -0.36,0.77 -0.36,1.21 0.17,-0.57 0.57,-0.91 1.22,-1.01 0.03,0.25 0.19,0.46 0.47,0.62 0.24,0.18 0.65,0.25 1.24,0.21 0.55,-0.01 0.86,0.2 0.94,0.64 0.03,0.22 -0.02,0.39 -0.28,0.47 -0.26,0.08 -0.55,-0.07 -0.76,-0.38 0.26,-0.15 0.51,-0.3 0.77,-0.45 -0.05,-0.08 -0.14,-0.15 -0.28,-0.18 -0.21,0.03 -0.55,0.21 -1.01,0.52 -0.41,0.25 -0.63,0.42 -0.98,0.5 -0.35,0.08 -0.69,-0 -0.75,-0.24 -0.04,-0.23 0.18,-0.43 0.6,-0.5 0.42,-0.07 0.74,0.04 1.02,0.24 0.12,-0.07 0.25,-0.15 0.37,-0.22 -0.21,-0.22 -0.5,-0.34 -0.87,-0.37 -0.67,-0.04 -1.14,0.09 -1.41,0.37 -0.32,0.31 -0.36,0.63 -0.13,0.95 0.17,0.18 0.36,0.28 0.55,0.32 0.4,0.13 0.98,-0.1 1.74,-0.67l-0 0z"/>
  </g>
 </g>
</svg>
