<?xml version="1.0" encoding="UTF-8"?>
<!DOCTYPE svg PUBLIC "-//W3C//DTD SVG 1.1//EN" "http://www.w3.org/Graphics/SVG/1.1/DTD/svg11.dtd">
<!-- Creator: CorelDRAW 2021 (64-Bit) -->
<svg xmlns="http://www.w3.org/2000/svg" xml:space="preserve" width="56.6208mm" height="10.5833mm" version="1.1" style="shape-rendering:geometricPrecision; text-rendering:geometricPrecision; image-rendering:optimizeQuality; fill-rule:evenodd; clip-rule:evenodd"
viewBox="0 0 4417 826"
 xmlns:xlink="http://www.w3.org/1999/xlink"
 xmlns:xodm="http://www.corel.com/coreldraw/odm/2003">
 <defs>
  <style type="text/css">
   <![CDATA[
    .fil1 {fill:black}
    .fil0 {fill:#F1623F}
   ]]>
  </style>
 </defs>
 <g id="Capa_x0020_1">
  <metadata id="CorelCorpID_0Corel-Layer"/>
  <g id="Logo_x0020_Julio_x0020_Forros_x0020_Dragón.svg">
   <g id="isotipo">
    <path class="fil0" d="M478 824c-258,13 -472,-48 -478,-138 -3,-37 31,-73 89,-104 -24,23 -37,47 -35,71 7,95 221,161 478,148 123,-6 234,-30 315,-63 -82,44 -217,77 -370,85l0 0zm-32 -823c211,-7 385,46 389,120 1,30 -27,59 -75,84 20,-18 31,-38 30,-58 -4,-78 -178,-135 -389,-128 -101,3 -192,21 -259,47 68,-35 179,-60 305,-64l0 0zm192 214c12,0 18,6 17,16 4,6 9,9 16,8 7,-3 8,-10 3,-22 -6,-12 -18,-12 -36,-2l0 0zm-532 188c31,-118 101,-217 208,-297 -109,32 -210,110 -303,235 13,11 24,12 34,3 21,-13 37,-12 48,2 -3,33 1,52 13,57l0 0zm-45 -147c44,-54 102,-102 173,-145 -66,15 -130,38 -195,67 -1,14 6,22 22,25 -12,29 -12,47 0,53l0 0zm481 369c45,60 100,98 167,113 54,9 99,-6 134,-46 35,-46 49,-93 41,-141 -6,-30 -16,-59 -31,-86 77,-9 124,11 141,62 13,47 4,75 -27,83 -25,6 -40,0 -44,-19 0,-6 3,-12 9,-17 6,-8 4,-16 -6,-23 4,9 0,13 -11,14 -14,16 -14,34 2,55 27,26 60,21 99,-15 19,-27 21,-60 5,-100 -44,-79 -110,-105 -199,-78 -42,-44 -109,-65 -203,-62 -95,5 -150,-12 -163,-51 -18,-60 24,-90 124,-89 11,31 41,49 90,55 13,12 27,20 43,24 -1,10 1,19 6,29 22,-5 36,-14 40,-26 2,-7 2,-15 -2,-24 -15,-22 -34,-40 -59,-54 3,-29 -15,-50 -54,-65 -37,-5 -72,-34 -103,-88 -10,-16 -21,-26 -34,-31 -4,15 1,32 16,51 11,16 22,32 33,48 -91,-15 -159,19 -202,103 -21,-9 -27,-30 -20,-61 8,-27 31,-49 68,-67 25,5 36,1 34,-14 -4,-21 -19,-28 -44,-20 -95,51 -165,115 -210,191 -41,64 -62,133 -62,208 29,-99 99,-157 209,-174 5,43 32,78 81,106 41,30 113,42 214,37 95,-2 149,34 162,110 5,37 -4,68 -48,81 -45,13 -95,-12 -131,-65 44,-26 89,-51 133,-77 -8,-15 -25,-25 -49,-31 -36,6 -94,36 -175,90 -70,43 -109,72 -169,87 -60,14 -119,-1 -128,-41 -7,-40 30,-74 102,-87 72,-12 127,7 176,41 21,-13 43,-26 64,-39 -37,-37 -86,-58 -149,-64 -115,-6 -196,15 -243,64 -54,54 -62,109 -23,164 29,31 61,49 95,55 68,22 168,-17 299,-114l0 0z"/>
   </g>
  </g>
  <g id="Logo_x0020_Julio_x0020_Forros_x0020_Nombre.svg">
   <g id="logotipo">
    <path class="fil1" d="M4058 430l-136 2 31 -85 136 -2 -31 85 0 0zm-9 45c12,0 29,-1 41,-7l0 0 1 0 0 0 1 0 0 0 1 0 1 0 0 0 1 0 1 0 1 0c12,-7 19,-20 24,-34l31 -84c4,-12 8,-28 -1,-38 -9,-9 -29,-10 -41,-10l-145 2c-14,0 -33,2 -45,10 -12,7 -19,20 -24,34l-31 84c-4,11 -8,28 1,38l0 0 0 0 0 0 0 0 0 0 0 0 0 0 0 0c0,0 1,0 1,1l0 0 1 0 0 0c10,6 27,6 36,6l145 -2 0 0zm-507 -123c0,0 0,1 0,1l-7 19c-1,2 -2,5 -4,6 -4,2 -11,2 -14,2l-93 1 10 -28 99 -1c2,0 7,0 10,1zm252 -4c2,0 6,0 9,0l0 0 0 0 0 0 0 0 0 0 0 0 0 0 0 0 0 0 0 0 0 0 0 0 0 0c0,0 0,0 0,1l-7 19c-1,2 -2,5 -4,6l0 0 0 0 0 0 0 0 0 0 0 0 0 0 0 0 0 0 0 0 0 0 0 0c-4,1 -10,2 -13,2l-93 1 10 -29 99 -1 0 0zm-6 71c12,0 25,-1 36,-7l0 0 1 0 0 0 1 0 0 0 1 0 0 0 1 0 1 0 1 0 0 0 1 0c11,-6 18,-16 22,-28l14 -37c4,-11 5,-24 -4,-32 -9,-8 -25,-9 -36,-8l-173 3 -63 172 -67 -56 5 0c13,0 28,-2 40,-9 11,-6 18,-16 23,-28l13 -37c4,-11 5,-24 -4,-32l0 0 0 0 0 0 0 0 0 0 0 0 0 0 0 0 0 0 0 0 0 0c-9,-5 -23,-6 -32,-6l-174 3 -64 175 60 -1 22 -60 36 0 58 59 89 -1 57 -1 22 -60 37 1 57 58 89 -1 -69 -59 5 0 0 0zm-528 22l-136 2 31 -85 136 -2 -31 85 0 0zm90 -120c-9,-9 -29,-10 -41,-10l-145 2c-14,0 -33,2 -45,10 -12,7 -19,20 -24,34l-31 84c-4,12 -8,28 1,38l0 0 0 0 0 0 0 0 0 0 0 0 0 0 0 0 0 0 1 0 0 0c10,7 27,7 38,7l145 -2c14,0 33,-2 45,-10 12,-7 19,-20 24,-34l31 -84c4,-12 8,-28 -1,-38l0 0zm-274 -57c-10,1 -20,1 -30,1 -9,0 -19,0 -29,1l0 0 -1 0 0 0 0 0 0 0 0 0 0 0 0 0 0 0 0 0 -5 1 -1 -2 0 0 0 0c0,0 0,0 -1,0l0 0 0 0 0 0 0 0 0 0 0 0 0 0 0 0 0 0 0 0 0 0 0 0c-4,6 -8,13 -12,19 -3,7 -6,13 -10,20 -3,6 -6,12 -9,18 17,-3 34,-5 51,-8 22,-4 44,-11 63,-23l30 -19 -21 30c-6,8 -12,16 -19,22 -10,12 -21,23 -32,34l-1 1 -1 0c-17,11 -35,19 -53,25 -15,5 -31,10 -46,16l-13 14c-10,16 -19,33 -28,50 -18,34 -37,74 -46,113l0 1 0 1c-18,36 -34,72 -48,109 -13,34 -25,68 -37,102l-12 34 -2 -36c-1,-16 3,-35 7,-51 1,-6 3,-12 5,-18 2,-6 4,-12 5,-19 -4,-1 -6,-4 -7,-9 0,-7 2,-17 5,-27l-1 0 0 -7c-1,-33 11,-73 22,-103 17,-51 39,-101 62,-149 -5,-2 -11,-6 -15,-9l-8 -6 7 -7c6,-5 13,-8 20,-6 3,1 5,0 8,-1 1,-1 2,-2 2,-4 -3,1 -6,2 -8,3 -6,0 -10,-4 -11,-10l0 -3 1 -2c2,-4 4,-7 7,-10 1,-1 2,-2 3,-2l0 0 0 0 0 0 -7 -6 4 -6 -1 -2 2 1 4 -6 14 11 -1 1c3,0 6,-1 10,-3 17,-36 35,-73 53,-109 -1,-3 -3,-5 -4,-8l-2 -4 3 -4c3,-4 7,-9 12,-9 2,0 3,0 5,1l0 0 0 0 0 0 0 0 0 0 0 0 0 0 0 0 0 0 0 0 0 0 0 0 0 0c0,0 0,0 0,0 -4,-3 -5,-9 -3,-15l1 -4 3 -1c10,-4 24,-6 35,-8 12,-2 23,-6 34,-11l3 -2 3 2c15,8 39,8 55,6 8,-1 16,-1 24,-2 8,-1 16,-1 24,-2 21,-2 50,-2 67,13 17,3 31,23 39,38l2 4 -8 15 -6 -3c-12,-6 -27,-12 -40,-11 -13,1 -26,8 -37,16l0 0 0 0c-22,13 -45,20 -70,22l-1 0 -1 0 -1 0 0 0 -1 0 0 0 -1 0 0 0 -1 0 0 0 -1 0 0 0 -1 0 0 0 0 0zm-477 181l-136 2 31 -85 136 -2 -31 85 0 0zm94 -128c-9,-10 -29,-10 -41,-10l-145 2c-14,0 -33,2 -45,10 -12,7 -19,20 -24,34l-31 84c-4,12 -8,28 1,38 9,9 29,10 41,9l145 -2c14,0 33,-2 45,-9 12,-7 19,-20 24,-34l31 -84c4,-12 8,-28 -1,-38l0 0zm-1007 300c0,0 1,-1 1,-1 7,-10 13,-20 20,-31 4,-9 8,-17 13,-25 1,-2 2,-4 3,-6l0 -1c1,-3 3,-6 4,-8 10,-24 19,-48 28,-73 19,-55 51,-106 73,-160 1,-4 2,-8 3,-12 2,-6 4,-11 6,-16l0 0c0,0 0,0 0,0 -1,1 -2,1 -3,2 2,-7 4,-14 6,-20 6,-17 11,-34 17,-51l0 -1 0 -1c0,-2 1,-6 2,-8 1,-3 1,-5 2,-8 0,-9 0,-17 0,-26 -2,0 -4,0 -6,0l0 0 0 0 0 0 0 0 0 0 0 0 0 0 0 0 0 0 0 0 0 0 0 0 0 0 0 0 0 0 0 0c-5,7 -11,13 -18,17l0 0c0,0 0,0 0,0 -2,2 -5,4 -8,6 0,2 -1,4 -3,6 -10,8 -22,14 -35,17 -32,22 -70,44 -108,46 -18,3 -36,3 -54,3 -16,0 -53,3 -68,-11 -3,-1 -5,-3 -7,-5 -2,0 -3,0 -5,-1l0 0 0 0 0 0 0 0 0 0 0 0 0 0 0 0 0 0 0 0 0 0 0 0c-2,0 -4,-1 -4,-3l0 0c0,0 0,0 0,0l0 0 0 0 0 0 0 0 0 0 0 0c-3,-3 -3,-8 0,-11 1,-3 3,-5 5,-7 1,-3 4,-5 7,-7 7,-10 20,-13 34,-14 14,-4 28,-1 43,-5 6,-1 12,-3 18,-5l-1 -5 -6 0c-11,1 -22,-2 -33,-5 -11,-4 -23,-7 -34,-7l0 0 0 0 0 0 0 0 0 0 0 0 0 0 0 0 0 0 0 0 0 0 0 0 0 0 0 0 0 0 0 0 0 0 0 0 0 0 0 0 0 0 0 0 0 0 0 0 0 0 0 0 0 0 0 0 0 0 0 0 0 0 0 0 0 0 0 0 0 0 0 0 0 0 0 0 0 0 0 0 0 0 0 0 0 0 0 0 0 0 0 0 0 0 0 0 0 0 0 0 0 0 0 0 0 0 0 0 0 0 0 0 0 0 0 0 0 0 0 0 0 0 0 0 0 0 0 0 0 0 0 0 0 0 0 0 0 0 0 0 0 0 0 0 0 0 0 0 0 0 0 0 0 0 0 0 0 0 0 0 0 0 0 0 0 0 0 0 0 0 0 0 0 0 0 0 0 0 0 0 0 0 0 0 0 0 0 0 0 0 0 0 -1 0 -1 0c-33,11 -60,32 -78,65l-1 1 0 1c-1,2 -1,5 -2,8 6,11 15,21 23,30 5,4 11,7 17,9l0 0c11,3 21,7 32,10l1 0 1 0c30,3 61,5 92,5 43,-1 87,-6 129,-18 0,1 -1,2 -1,3 -2,4 -6,12 -8,17l0 0 0 0 0 0 0 0 0 0 0 0 0 0 0 0 0 0 0 0 0 0 0 0 0 0 0 0 0 0 0 0 0 0 0 0 0 0 0 0 0 0 0 0 0 0 0 0 0 0 0 0 0 0 0 0 0 0 0 0 0 0 0 0 0 0c0,0 -1,0 -1,0l0 0 0 0 0 0 0 0 0 0 0 0 0 0 0 0c-1,0 -1,0 -2,1l0 0 0 0 0 0 0 0 0 0 0 0 0 0c2,1 3,3 2,5 -4,7 -6,15 -9,22l1 2c0,0 0,0 0,0 -1,2 -1,4 -2,6 -2,3 -3,6 -6,8l-1 1c0,3 0,6 -2,9 0,4 -2,8 -3,11 -3,8 -7,15 -11,23 -3,7 -7,15 -8,23 -2,4 -4,9 -7,14 -6,12 -11,25 -15,38 -4,11 -8,24 -13,35 -4,4 -6,10 -8,15 0,2 -1,4 -2,6 -8,-5 -17,-9 -26,-13 -15,-7 -30,-14 -45,-21 -24,-11 -50,-22 -74,-36l0 0c-1,-1 -4,-2 -6,-2 -4,-1 -9,-3 -13,-4 -18,-6 -35,-11 -53,-17 -25,-8 -52,-14 -79,-14l-3 0 -2 2 0 0 0 0 0 0 0 0 0 0 0 0 0 0 0 0 0 0 0 0 0 0c-6,-1 -13,-2 -19,-1 -8,0 -16,1 -23,2l0 0 0 0 0 0 0 0 0 0 0 0 0 0 0 0 0 0 0 0 0 0 0 0 0 0 0 0 0 0 0 0 0 0 0 0 0 0 0 0 0 0 0 0 0 0c-6,0 -15,0 -18,0 -3,0 -9,0 -12,-1l0 0 0 0 0 0 0 0 0 0 0 0 0 0 -2 -1 -2 0c-21,0 -45,6 -66,11 -5,1 -9,2 -14,4l0 0c-17,5 -34,11 -51,16 -2,2 -4,4 -8,5 -2,0 -5,1 -7,2 -16,13 -31,29 -42,48l0 0 0 0 0 0 0 0 0 0 0 0 0 0 0 0 0 0 0 0 0 0 0 0 0 0 0 0 0 0 0 0 0 0 0 0 0 0 0 0 0 0 0 0 0 0 0 0 0 0 0 0 0 0 0 0 0 0 0 0 0 0 0 0 0 0 0 0 0 0 0 0 0 0 0 0 0 0 0 0 0 0 0 0 0 0 0 0 0 0 0 0 0 0 0 0 0 0 0 0 0 0 0 0 0 0 0 0 0 0 0 0 0 0 0 0 0 0 0 0 0 0 0 0 0 0 0 0 0 0 0 0 0 0 0 0 0 0 0 0 0 0 0 0 0 0 0 0 0 0 0 0 0 0 0 0 0 0 0 0 0 0 0 0 0 0 0 0 0 0 0 0 0 0 0 0 0 0 0 0 0 0 0 0 0 0 0 0 0 0 0 0 0 0 0 0 0 0c0,3 0,7 1,10l0 0 0 0 0 0 0 0 0 0 0 0 0 0 0 0 0 0 0 0 0 0 0 0 0 0 0 0 0 0 0 0 0 0 0 0 0 0 0 0 0 0 0 0 0 0 0 0 0 0 0 0 0 0 0 0 0 0 0 1 0 0 0 0 0 0 0 0 0 0 0 0 0 0 0 0 0 0 0 0 0 0 0 0 0 0 0 0 0 0 0 0 0 0 0 0 0 0 0 0 0 0 0 0 0 0 0 0 0 0 0 0c1,3 1,5 2,8 2,1 3,3 4,5 1,2 2,3 3,5 4,5 9,10 13,15 2,2 4,3 6,5l0 0 0 0 0 0 0 0 0 0c1,0 2,0 3,0 2,2 4,4 5,6 11,7 24,12 36,16l0 0 0 0 0 0 0 0 0 0 0 0 0 0 0 0 0 0 0 0c4,0 8,1 13,1 17,0 33,-5 48,-12l15 -7 -9 -4c-6,0 -13,-1 -19,-2 -8,0 -16,-1 -23,-4l0 0 0 0 0 0 0 0 0 0 0 0 0 0c-1,0 -2,0 -3,0 0,-1 -1,-1 -1,-2l0 0 0 0 0 0 0 0 0 0 0 0 0 0 0 0 0 0 0 0c-2,0 -3,0 -5,0 -1,0 -2,-1 -3,-2l0 0 0 0 0 0 0 0 0 0 0 0 0 0 0 0 0 0 0 0 0 0 0 0 0 0 0 0 0 0 0 0 0 0 0 0 0 0 0 0 -1 0 0 0 0 0 0 0 0 0 0 0 0 0 0 0 0 0 0 0 0 0c0,0 0,0 -1,0l0 0c-4,-1 -8,-3 -11,-5 -2,-1 -4,-2 -6,-3 -5,-2 -9,-6 -10,-10 -1,-1 -2,-1 -2,-2 1,-1 2,-1 3,-2 -3,-5 -2,-11 6,-16 9,-6 21,-9 31,-12 12,-4 25,-8 37,-11 4,-2 7,-3 11,-5 14,-2 28,-3 41,-3 22,0 43,2 63,6 6,0 11,1 16,1 41,3 76,12 111,26 45,11 92,30 119,66 8,7 14,14 18,22 1,1 3,3 4,4 1,2 4,3 6,4 0,1 -1,2 -1,2 13,11 11,39 6,64 2,0 3,-1 5,-1l0 0 0 0 0 0 0 0 0 0 0 0 0 0 0 0 0 0 0 0 0 0 0 0 0 0 1 0 1 -1c8,-8 14,-19 20,-28 5,-10 11,-20 16,-30l0 0zm618 -123l64 -175 61 -1 -64 175 -61 1zm-167 -42l148 -2 -17 46 -209 3 64 -175 61 -1 -47 129zm-113 41c-12,6 -28,7 -40,7l-125 2c-10,0 -26,0 -36,-6l0 0 -1 0 0 0 -1 0 0 0 -1 0 0 0 0 0 0 0 0 0 0 0 0 0 0 0 0 0 0 0 0 0c-5,-5 -6,-12 -6,-19 1,-6 2,-13 5,-19l46 -126 61 -1 -47 129 116 -2 47 -129 61 -1 -48 132c-5,13 -12,27 -24,34l-1 0 -1 0 -1 0 -1 0 -1 0 -1 0 0 0 -1 0 0 0 -1 0 0 0 0 0zm2173 -89c-5,-1 -10,-4 -13,-7 -9,-10 -5,-26 -1,-38l6 -17c5,-14 12,-26 24,-34 12,-8 31,-9 45,-10l112 -2c11,0 31,0 40,9 10,9 7,24 3,36l-3 8 -55 0 3 -10 -114 2 -7 19 113 -2c10,0 26,-1 37,6l0 0 1 0 1 0 1 0 1 0 1 0 1 0 1 0c9,10 5,26 1,38l-8 22c-5,14 -12,26 -24,34 -13,8 -31,9 -45,10l-122 2c-12,0 -32,0 -41,-10 -9,-10 -5,-26 -1,-38l3 -8 4 -1 0 0 52 -1 -5 12 124 -2 7 -20 -113 2c-9,0 -17,0 -28,-3l0 0 0 0zm0 0l0 0 0 0zm-929 237l30 -85 159 -2 -5 14 -123 2 -7 19 72 -1 -5 14 -72 1 -8 21 125 -2 -6 16 -161 2 0 0zm422 -6l30 -85 159 -2 -5 14 -123 2 -7 19 72 -1 -5 14 -72 1 -8 21 125 -2 -6 16 -161 2 0 0zm205 -3l30 -85 36 0 -30 85 -36 0zm469 -113l-10 28 -7 0 -29 80 -94 1 5 -14 63 -1 22 -63 -8 0 -13 4 -13 6 -10 5 -12 6 -11 6 -16 11 -15 11 -14 13 -12 14 -13 17 -8 14 -7 16 -14 40 -2 24 -1 -3 -1 -36 6 -28 6 -16 13 -26 11 -16 12 -15 13 -13 11 -11 11 -8 18 -13 19 -11 16 -8 16 -6 18 -5 20 -4 15 -1 15 -1 0 0zm-1167 53c5,0 9,0 11,1l0 0 0 0 0 0 0 0 0 0 0 0 0 0 0 0 0 0 0 0 0 0 0 0c2,1 3,3 2,5l-3 9c-1,2 -3,4 -5,5l0 0 0 0 0 0 0 0 0 0 0 0 0 0 0 0 0 0 0 0 0 0 0 0c-3,1 -7,1 -12,1l-81 1 8 -22 82 -1 0 0zm4 29c11,0 19,-1 25,-3l0 0 0 0 0 0 0 0 0 0 0 0 0 0 0 0 0 0 0 0 0 0 0 0 0 0c6,-3 11,-7 13,-13l7 -19c2,-6 1,-10 -4,-12 -5,-3 -13,-4 -25,-4l-133 2 -30 85 36 0 12 -33 97 -1 0 0zm410 -35c6,0 10,0 12,1l0 0 0 0 0 0 0 0 0 0 0 0 0 0 0 0 0 0 0 0 0 0c2,1 3,3 2,5l-4 10c-1,3 -3,4 -5,5l0 0 0 0 0 0 0 0 0 0 0 0 0 0 0 0 0 0 0 0 0 0 0 0c-3,1 -7,1 -12,1l-82 1 8 -24 82 -1 0 0zm4 30c11,0 20,-1 26,-3l0 0 0 0 0 0 0 0 0 0 0 0 0 0 0 0 0 0 0 0 0 0c6,-3 11,-7 13,-13l7 -20c2,-6 1,-10 -4,-12 -5,-2 -13,-4 -26,-3l-133 2 -30 85 36 0 11 -32 34 0 51 31 52 -1 -60 -31 20 0 0 0zm490 -37c5,0 9,0 11,1l0 0 0 0 0 0 0 0 0 0 0 0 0 0 0 0 0 0 0 0 0 0 0 0 0 0 0 0c2,1 3,3 2,5l-4 10c-1,3 -3,4 -5,5 -3,1 -7,2 -13,2l-82 1 9 -24 81 -1 0 0zm48 -19c-5,-2 -13,-4 -25,-3l-133 2 -30 85 36 0 11 -32 34 0 51 31 52 -1 -60 -31 20 0c12,0 22,-2 28,-4 7,-3 11,-7 13,-13l7 -20c2,-6 1,-10 -4,-12l0 0z"/>
   </g>
  </g>
 </g>
</svg>
